<svg xmlns="http://www.w3.org/2000/svg" width="22" height="22" viewBox="0 0 22 22">
  <g fill="none" fill-rule="evenodd">
    <circle cx="11" cy="11" r="11" fill="#385D97" fill-rule="nonzero"/>
    <path fill="#FFF" fill-rule="nonzero" d="M13.6329937,12.9264452 C13.800461,12.540786 12.9323249,13.8469232 12.673913,13.6304348 C12.377005,13.5675898 12.1429333,13.4878796 11.971698,13.3913043 C11.692362,13.2337612 11.71572,12.939926 11.2885843,12.673913 C10.9921516,12.4892998 10.3418871,12.1809588 9.33779089,11.74889 L7.27520545,11.9836371 C6.90495253,12.0269832 6.52439845,11.8930219 6.26368114,11.6270366 L3.50704316,8.82329412 C3.37185334,8.68578334 2.80940885,8.28151246 2.56926611,7.7601279 C2.29914696,7.17366022 2.36725159,6.44667827 2.56926611,5.932158 C2.95087664,4.96021624 4.18564622,3.72621423 4.78433726,3.30240447 C5.31394868,2.92749575 6.11171459,2.24779641 7.27520545,1.82962254 C7.88099306,1.61189453 8.67545001,1.24069294 9.6229857,1.04331178 C9.88869055,0.9879628 10.8569168,0.781208189 11.2626352,1.30541537 C11.6683535,1.82962254 10.6228844,2.434998 10.4426142,2.52144806 L9.64780658,2.90260322 C9.3552538,3.042909 9.34097934,3.44924849 9.6229857,3.60916899 L10.5262988,4.12152483 C10.9547778,4.36455363 11.5019653,4.17547742 11.6834128,3.72162672 L11.7421784,3.57468583 C11.9278445,3.11037395 12.4941137,2.92551127 12.9234756,3.18902655 L15.1130105,4.53285276 C15.404435,4.71170994 15.3527821,5.144832 15.0272656,5.25196227 L13.8709856,5.63248782 L11.971698,7.7601279 C11.7709236,7.98499492 11.6627124,8.27592237 11.6683535,8.57566434 L11.6936649,9.92452741 C11.6975892,10.1451809 11.5195754,10.3275736 11.2885843,10.331884 C11.0682377,10.331884 10.8878694,10.1576762 10.8835036,9.93934742 L10.876489,9.56516639 C10.8673652,9.07838233 10.4235816,8.71248306 9.93677849,8.79040919 L8.20490916,9.06767899 C7.79820978,9.13281923 7.5057551,9.48898378 7.52532729,9.89532328 L7.53602087,10.2738631 C7.54926521,10.7428729 7.96665818,11.0999576 8.43869632,11.0461988 L9.41946432,10.9345644 C9.53076585,10.9219238 9.64245979,10.9553415 9.72786127,11.0268746 C10.6218393,11.498934 11.2964873,11.7169758 11.7518054,11.6810001 C11.8984293,11.669415 12.2748133,11.5118534 12.5,11.5 C12.6096777,11.4942268 12.6368178,11.6157418 12.673913,11.6270366 C12.9154228,11.7005716 12.5395341,11.9386873 12.673913,11.9836371 C13.4966577,12.2588449 13.6025311,12.3041985 13.8709856,12.4347826 C14.2556016,12.6218711 14.176271,12.7857587 13.6329937,12.9264452 Z"/>
    <path fill="#FFF" fill-rule="nonzero" d="M17.9845123,13.7455521 L15.6801752,12.2004476 C15.4956381,12.0766783 15.2870539,11.9898953 15.066893,11.945254 L12.673913,11.492747 C12.3295359,11.4229144 12.2187747,11.6119088 12.0800977,11.9229138 C11.8745601,12.4660301 11.7398232,12.822119 11.6758872,12.9911805 L11.538835,13.3535444 C11.4352131,13.6276022 11.4656376,13.9319676 11.6216594,14.1820448 L12.8137778,16.0924424 C12.94035,16.2953006 12.9852758,16.5356919 12.9400251,16.7682328 L12.3784929,19.6544901 C12.3547302,19.7766581 12.1213364,20.3114241 12.4675571,20.5227907 C12.8137778,20.7341574 13.2033245,20.2981762 13.316817,20.1685485 C14.5395162,18.8158032 15.3273023,17.9475062 15.6801752,17.5636574 C16.4422541,16.7346819 17.1825282,16.4820005 17.5236451,16.0924424 C17.8848161,15.6799826 18.3462802,15.2771762 18.4130435,14.826087 C18.4815894,14.3629528 18.1484543,13.8554798 17.9845123,13.7455521 Z"/>
  </g>
</svg>
